<?xml version="1.0" encoding="UTF-8"?>
<svg id="Ebene_1" data-name="Ebene 1" xmlns="http://www.w3.org/2000/svg" version="1.1" viewBox="0 0 516 114">
  <defs>
    <style>
      .cls-1 {
        fill: #189eff;
        stroke-width: 0px;
      }
    </style>
  </defs>
  <path class="cls-1" d="M166,57.2c-4.1-1.7-7.4-3.4-7.4-6s2.1-3.7,5.7-3.7,5.9.8,8.8,2c.8.3,2,.4,2.7-.8l1.4-2.9c.5-1,0-2.3-.9-3-2-1.3-6.3-3-11.9-3-9.9,0-14,6-14,11.1s5.2,10.1,11.5,13c5.7,2.5,8.8,4.3,8.8,7s-1.9,4-5.4,4-7.7-1.7-10.2-3c-1-.6-2.2-.3-2.7.5l-1.8,3.8c-.4.9,0,1.7.7,2.1,2.3,1.6,7,4.2,13.5,4.2s14.6-5.6,14.6-11.9c-.2-7.4-5.8-10.2-13.3-13.4Z"/>
  <g>
    <path class="cls-1" d="M111.8,94.2c-4.2-3.1-10.3-5.5-16.8-8-7.7-3-16.5-6.3-23-11.7-7.5-5.9-11.1-13.4-11.1-22.9s3.5-15.7,10.2-21c7.5-5.9,18.8-9,32.7-9s7.6.3,11,.7c.3,0,.6,0,.7-.4.2-.3,0-.6-.2-.8-8.7-7.9-20.1-12.3-31.9-12.3s-24.8,5-33.8,14c-9,9-14,21-14,33.8s5,24.8,14,33.8c9,9,21,14,33.8,14s20.2-3.2,28.4-9.4c.2-.2.3-.3.3-.5,0-.2,0-.3-.2-.5Z"/>
    <path class="cls-1" d="M130.9,52.4c0-.2,0-.3-.3-.4-9.9-8.3-18-11.7-27.8-11.7s-9.2,1-11.9,3.1c-2.3,1.8-3.6,4.3-3.6,7.2,0,8.2,10.1,12,21.7,16.4,6,2.3,12.2,4.5,17.9,7.7,0,0,.2,0,.3,0s.2,0,.3,0c.2,0,.3-.2.4-.4,2.2-5.6,3.3-11.5,3.3-17.5,0-1.4-.2-2.9-.3-4.4Z"/>
  </g>
  <path class="cls-1" d="M406,82.3c1.2-.2,2.1-1,2.1-2.2v-20.8c0-10.6-1.3-18.9-15-18.9s-13.9,2.1-14.7,2.4c-1,.3-1.7,1-1.4,2.5l.9,3.5c.3,1.2,1.1,2,2.4,1.7,2.2-.6,7-2,11.9-2s7,3,6.9,9.8c0,0-4.2-1.3-8.6-1.3-11,0-17,5.9-17,13.7s5.7,11.9,13.7,11.9,13.3,0,16.1-.3l2.8-.3ZM398.9,74.7c-1.3,2.1-5.9,1.6-9.9,1.5-4.4,0-6.6-1.7-6.6-5.4s3.8-7,8.8-7,7.2,1.1,7.7,1.5v9.5h0Z"/>
  <path class="cls-1" d="M475.7,40c2.7,0,4.9-2.2,4.9-4.9s-2.2-4.9-4.9-4.9-4.9,2.2-4.9,4.9c0,2.7,2.2,4.9,4.9,4.9ZM475.7,31c2.3,0,4.1,1.8,4.1,4.2s-1.8,4.2-4.1,4.2-4.1-1.8-4.1-4.2,1.8-4.2,4.1-4.2Z"/>
  <path class="cls-1" d="M474.1,37.6h.4c0,0,.2,0,.2-.2v-1.7h1l.9,1.8c0,0,0,0,.2,0h.5c0,0,.2,0,0-.2l-1-1.7c.6-.3,1-.8,1-1.4,0-.9-.7-1.5-1.6-1.5h-1.9c0,0-.2,0-.2.2v4.6q.2,0,.3,0ZM474.7,33.4h1.2c.4,0,.9.3.9.9s-.4.9-.9.9h-1.2v-1.7Z"/>
  <path class="cls-1" d="M206.4,40c-6.4,0-10.9,3.6-11.8,4.3v-18.3c0-1-1-1.9-1.9-1.9h-5c-1,0-1.9,1-1.9,1.9v54.8c0,1,.9,1.9,1.9,1.9h4.9c1.2,0,2-.8,2-1.9v-26.4c.9-1.7,4.4-5.9,10.7-5.9s8.2,4,8.2,10.7v21.7c0,1,.9,1.9,1.9,1.9h5c1,0,1.9-.9,1.9-1.9v-21.5c0-11.1-4.2-19.3-15.7-19.3Z"/>
  <path class="cls-1" d="M310.1,59.7c-.5-13.9-6.3-19.7-19.7-19.7s-14.1,1.9-15.2,2.4c-1.4.6-2.4,1.3-2.4,2.3v52.1c0,1,.9,1.9,1.9,1.9h4.1c1.3,0,2.1-.8,2.1-1.9v-14.7c1.2.3,7.6.9,12.9.7,9.5-.3,15.8-7.1,16.4-18.8.2-1.7,0-4.3,0-4.3ZM301.4,63.9c-.2,7.9-2.4,11.4-9.1,11.7-3.3.2-11-.7-11-.7-.3,0-.5-.3-.5-.5v-25c0-.3.2-.4.4-.4.9,0,4.3-1.1,9-1.1,8.1,0,10.9,1.2,11.2,11.4,0,1.3,0,3.2,0,4.7Z"/>
  <path class="cls-1" d="M368.7,40.9h-3.7c-1,0-2.6,0-3.1,1.2l-6.5,23.6h-.2l-11-24.7c-.2-.5-.8-1-1.7-1h-.6c-.8,0-1.4.4-1.7,1l-11,24.6h-.2l-6.7-23.5c-.2-.8-1-1.2-1.7-1.2h-5.3c-1.4,0-2,1-1.4,2.3l11.9,38.5c.2.6.8,1,1.7,1h.5c.9,0,1.4-.4,1.6-1l12.6-27.8h.2l12.4,27.7c.3.5.9,1,1.7,1h.3c.9,0,1.7-.4,1.8-1l11.7-38.4c.6-1.3-.2-2.3-1.6-2.3Z"/>
  <path class="cls-1" d="M433.9,40.5h-1.7c-2.1,0-4.2,0-6.1.2h0c-3.7.2-5.8.4-7.4.6,0,0-1,0-2.2.3-.8,0-1.3.4-1.7.9-.3.3-.3.6-.3,1v37.4c0,1,.9,1.9,1.9,1.9h4.1c1.7,0,2.9-.2,2.9-1.9v-25.3h0v-5.8c0-.3.3-.5.6-.7,1-.6,3.4-1,8.3-1h1.1c1.1,0,2.9.4,3.4.8.9.4,1.9.2,2.5-1l2.1-3.5c1.2-2.7-3.7-3.7-7.6-3.7Z"/>
  <path class="cls-1" d="M461.9,40c-12.3,0-20.4,9.8-20.4,21.3s8.1,21.4,20.4,21.4,12.2-2.4,15.1-5c1.2-1,.9-1.8.2-2.8l-2.4-3.7c-.7-1-1.5-.8-2.4-.2-2.4,1.7-5.3,3.5-10,3.5-7.1,0-12.1-5.7-12.2-11.1h28.3c.9,0,1.7-.7,1.8-1.7,0-.7.2-2.1.2-2.9,0-10.8-8-18.7-18.6-18.7ZM450.8,56.8c.6-5.1,4.5-9.3,11-9.3s9.9,4.3,10.1,9.3h-21Z"/>
  <path class="cls-1" d="M265.5,52.6c-1-2.6-2.2-4.9-3.9-6.8s-3.7-3.3-5.9-4.3-5.6-1.6-8.3-1.6-6,.5-8.3,1.6-4.3,2.4-6,4.3c-1.7,1.9-3,4.2-3.9,6.8s-1.4,5.6-1.4,8.7.4,6.2,1.4,8.8,2.3,4.9,3.9,6.7c1.7,1.9,3.7,3.3,6,4.3s5.6,1.6,8.3,1.6,6-.5,8.3-1.6,4.3-2.4,5.9-4.3,3-4.1,3.9-6.7,1.4-5.6,1.4-8.8-.4-6-1.4-8.7ZM247.2,75.7c-7.4,0-11.1-6.3-11.1-14s3.7-14,11.1-14,11.1,6.3,11.1,14-3.7,14-11.1,14Z"/>
</svg>